HIERARCHY
ROOT Hips
{
	OFFSET 0.000000 0.000000 0.000000
	CHANNELS 6 Xposition Yposition Zposition Zrotation Yrotation Xrotation 
	JOINT LowerBack
	{
		OFFSET 0.000000 0.000000 0.000000
		CHANNELS 3 Zrotation Yrotation Xrotation
		JOINT Spine
		{
			OFFSET 0.028270 2.035590 -0.193380
			CHANNELS 3 Zrotation Yrotation Xrotation
			JOINT Spine1
			{
				OFFSET 0.056720 2.048850 -0.042750
				CHANNELS 3 Zrotation Yrotation Xrotation
				JOINT Neck
				{
					OFFSET 0.000000 0.000000 0.000000
					CHANNELS 3 Zrotation Yrotation Xrotation
					JOINT Neck1
					{
						OFFSET -0.054170 1.746240 0.172020
						CHANNELS 3 Zrotation Yrotation Xrotation
						JOINT Head
						{
							OFFSET 0.104070 1.761360 -0.123970
							CHANNELS 3 Zrotation Yrotation Xrotation
							End Site
							{
								OFFSET 0.000000 0.000000 0.000000
							}
						}
					}
				}
				JOINT LeftShoulder
				{
					OFFSET 0.000000 0.000000 0.000000
					CHANNELS 3 Zrotation Yrotation Xrotation
					JOINT LeftArm
					{
						OFFSET 3.362410 1.200890 -0.311210
						CHANNELS 3 Zrotation Yrotation Xrotation
						JOINT LeftForeArm
						{
							OFFSET 4.983000 -0.000000 -0.000000
							CHANNELS 3 Zrotation Yrotation Xrotation
							JOINT LeftHand
							{
								OFFSET 3.483560 -0.000000 -0.000000
								CHANNELS 3 Zrotation Yrotation Xrotation
								JOINT LeftFingerBase
								{
									OFFSET 0.000000 0.000000 0.000000
									CHANNELS 3 Zrotation Yrotation Xrotation
									JOINT LeftHandIndex1
									{
										OFFSET 0.715260 -0.000000 -0.000000
										CHANNELS 3 Zrotation Yrotation Xrotation
										End Site
										{
											OFFSET 0.000000 0.000000 0.000000
										}
									}
								}
								JOINT LThumb
								{
									OFFSET 0.000000 0.000000 0.000000
									CHANNELS 3 Zrotation Yrotation Xrotation
									End Site
									{
										OFFSET 0.000000 0.000000 0.000000
									}
								}
							}
						}
					}
				}
				JOINT RightShoulder
				{
					OFFSET 0.000000 0.000000 0.000000
					CHANNELS 3 Zrotation Yrotation Xrotation
					JOINT RightArm
					{
						OFFSET -3.136600 1.374050 -0.404650
						CHANNELS 3 Zrotation Yrotation Xrotation
						JOINT RightForeArm
						{
							OFFSET -5.241900 -0.000000 -0.000000
							CHANNELS 3 Zrotation Yrotation Xrotation
							JOINT RightHand
							{
								OFFSET -3.444170 -0.000000 -0.000000
								CHANNELS 3 Zrotation Yrotation Xrotation
								JOINT RightFingerBase
								{
									OFFSET 0.000000 0.000000 0.000000
									CHANNELS 3 Zrotation Yrotation Xrotation
									JOINT RightHandIndex1
									{
										OFFSET -0.622530 -0.000000 -0.000000
										CHANNELS 3 Zrotation Yrotation Xrotation
										End Site
										{
											OFFSET 0.000000 0.000000 0.000000
										}
									}
								}
								JOINT RThumb
								{
									OFFSET 0.000000 0.000000 0.000000
									CHANNELS 3 Zrotation Yrotation Xrotation
									End Site
									{
										OFFSET 0.000000 0.000000 0.000000
									}
								}
							}
						}
					}
				}
			}
		}
	}
}
}
MOTION
Frames: 17
Frame Time: 0.008333
21.818372 16.835935 1.263750 173.733272 -89.523019 -140.698201 1.864241 -2.200895 -8.160430 -0.200070 -2.711616 -4.458837 -5.920311 -2.888474 0.912438 11.816516 -12.628998 -14.483732 -2.303097 -0.074589 -2.109779 0.000000 0.000000 0.000000 1.068936 10.832141 3.124727 -80.878346 14.108319 -0.224855 -1.191990 -44.624126 -0.017480 28.752909 -5.859093 -1.528104 -0.151781 0.071481 -0.000000 0.000000 0.000000 0.000000 0.000000 0.000000 0.000000 12.314124 -8.141296 2.172878 81.750720 1.600761 -1.064642 1.641790 41.558591 -0.025107 -19.327661 15.349939 -2.697088 0.194766 -0.246903 -0.000000 0.000000 0.000000 0.000000 0.000000 0.000000 0.000000 
21.795735 16.762808 1.271452 175.844795 -89.336133 -142.012928 1.853024 -2.150783 -8.302112 -0.198591 -2.669682 -4.490641 -5.904163 -2.847809 0.914701 11.900319 -12.923701 -14.756793 -2.229936 -0.063125 -2.200754 0.000000 0.000000 0.000000 0.950523 11.401606 3.076471 -80.689591 14.976310 0.218337 -1.053591 -48.061277 -0.017528 30.834678 -6.732014 -1.887667 -0.165477 0.075379 -0.000000 0.000000 0.000000 0.000000 0.000000 0.000000 0.000000 12.005966 -8.344936 2.121481 81.623331 0.988800 -0.547333 1.503313 44.605393 -0.028438 -21.345357 16.682815 -3.244776 0.208338 -0.259797 -0.000000 0.000000 0.000000 0.000000 0.000000 0.000000 0.000000 
21.773060 16.677767 1.277747 -179.355792 -89.128660 -146.010861 1.854412 -2.086473 -8.457395 -0.193904 -2.618283 -4.521453 -5.891185 -2.798299 0.933528 12.008597 -13.263983 -15.045517 -2.148636 -0.050533 -2.295765 0.000000 0.000000 0.000000 0.866122 12.034197 3.009229 -80.468766 15.830873 0.491961 -0.919001 -51.801447 -0.017294 32.986770 -7.792260 -2.345087 -0.182345 0.081070 -0.000000 0.000000 0.000000 0.000000 0.000000 0.000000 0.000000 11.676948 -8.593381 2.056595 81.448619 0.385202 -0.106603 1.360927 47.920686 -0.031672 -23.577212 18.181418 -3.917841 0.223724 -0.273813 -0.000000 0.000000 0.000000 0.000000 0.000000 0.000000 0.000000 
21.750470 16.580191 1.282548 -170.607274 -88.950409 -153.950919 1.930723 -2.009525 -8.633861 -0.173066 -2.567221 -4.553757 -5.887382 -2.749981 0.964703 12.143794 -13.629749 -15.343453 -2.064476 -0.037494 -2.392695 0.000000 0.000000 0.000000 0.819130 12.698476 2.926753 -80.239966 16.688191 0.548369 -0.790042 -55.841838 -0.016805 35.160391 -9.045703 -2.913153 -0.202787 0.089220 -0.000000 0.000000 0.000000 0.000000 0.000000 0.000000 0.000000 11.343801 -8.864392 1.980242 81.235739 -0.229931 0.192324 1.216466 51.507199 -0.034660 -25.975861 19.815478 -4.722177 0.240806 -0.289135 -0.000000 0.000000 0.000000 0.000000 0.000000 0.000000 0.000000 
21.727874 16.469593 1.285950 -157.444824 -88.953591 -166.293176 2.125259 -1.966130 -8.839949 -0.122172 -2.566205 -4.585381 -5.889407 -2.751600 1.020826 12.306892 -14.037948 -15.659565 -1.977131 -0.023921 -2.494141 0.000000 0.000000 0.000000 0.822101 13.387227 2.835013 -80.024491 17.498640 0.406988 -0.671871 -60.117990 -0.016183 37.303456 -10.488862 -3.600655 -0.227595 0.100833 -0.000000 0.000000 0.000000 0.000000 0.000000 0.000000 0.000000 11.016970 -9.197594 1.887766 80.987765 -0.821935 0.352923 1.071452 55.312001 -0.037277 -28.500860 21.542719 -5.658589 0.259462 -0.305761 0.000000 0.000000 0.000000 0.000000 0.000000 0.000000 0.000000 
21.705559 16.345906 1.288101 -142.148006 -89.244351 179.235911 2.281263 -2.023485 -9.081745 -0.070375 -2.659724 -4.617107 -5.884784 -2.846079 1.100763 12.490655 -14.469272 -15.987349 -1.890734 -0.010260 -2.598340 0.000000 0.000000 0.000000 0.887770 14.050502 2.742985 -79.840063 18.247307 0.071514 -0.568308 -64.578334 -0.015589 39.356605 -12.103911 -4.406979 -0.257425 0.117020 -0.000000 0.000000 0.000000 0.000000 0.000000 0.000000 0.000000 10.710459 -9.594146 1.779836 80.717322 -1.392208 0.338448 0.925301 59.285511 -0.039669 -31.079080 23.309949 -6.711775 0.279218 -0.324115 0.000000 0.000000 0.000000 0.000000 0.000000 0.000000 0.000000 
21.683899 16.209241 1.289288 -128.978645 -89.650728 166.895350 2.225518 -2.143184 -9.353682 -0.060239 -2.787873 -4.647528 -5.862665 -2.973498 1.209089 12.695057 -14.927798 -16.329576 -1.801777 0.004118 -2.706387 0.000000 0.000000 0.000000 1.029218 14.724717 2.647642 -79.696808 18.883401 -0.415315 -0.477985 -69.127184 -0.015386 41.267358 -13.861494 -5.322526 -0.292015 0.138899 -0.000000 0.000000 0.000000 0.000000 0.000000 0.000000 0.000000 10.423126 -10.034113 1.663727 80.436399 -1.889652 0.178499 0.785061 63.327985 -0.041846 -33.643746 25.056076 -7.855531 0.300573 -0.344752 0.000000 0.000000 0.000000 0.000000 0.000000 0.000000 0.000000 
21.663525 16.060266 1.289858 59.819408 -89.986946 -21.085229 2.028953 -2.254117 -9.637316 -0.081306 -2.890273 -4.676740 -5.828577 -3.075077 1.331995 12.910223 -15.378019 -16.672648 -1.713765 0.018709 -2.814558 0.000000 0.000000 0.000000 1.243636 15.396220 2.550796 -79.610847 19.406338 -1.050004 -0.398118 -73.687699 -0.016119 42.989587 -15.722596 -6.327104 -0.330191 0.167423 0.000000 0.000000 0.000000 0.000000 0.000000 0.000000 0.000000 10.146938 -10.447722 1.548494 80.154550 -2.312384 -0.140179 0.655720 67.365299 -0.044023 -36.103843 26.720291 -9.045757 0.323724 -0.368402 0.000000 0.000000 0.000000 0.000000 0.000000 0.000000 0.000000 
21.644874 15.899801 1.290220 64.709175 -89.685576 -25.183549 1.790548 -2.340832 -9.914370 -0.111000 -2.963514 -4.702063 -5.783216 -3.147991 1.464469 13.121059 -15.804365 -17.010155 -1.627576 0.033315 -2.921447 0.000000 0.000000 0.000000 1.536610 16.040685 2.458496 -79.593112 19.787378 -1.797010 -0.329611 -78.151286 -0.018338 44.491519 -17.643234 -7.393120 -0.370665 0.203267 0.000000 0.000000 0.000000 0.000000 0.000000 0.000000 0.000000 9.865889 -10.817792 1.436630 79.876252 -2.642994 -0.594235 0.538904 71.302758 -0.046595 -38.387125 28.248131 -10.231960 0.348232 -0.395229 -0.000000 0.000000 0.000000 0.000000 0.000000 0.000000 0.000000 
21.628438 15.729094 1.290734 66.831565 -89.427007 -26.562124 1.553372 -2.407975 -10.163908 -0.139199 -3.015854 -4.721616 -5.725366 -3.200359 1.595771 13.307868 -16.180437 -17.330131 -1.546445 0.047415 -3.024047 0.000000 0.000000 0.000000 1.912464 16.612757 2.378286 -79.646536 20.016886 -2.628333 -0.274090 -82.418792 -0.022449 45.756313 -19.577158 -8.487398 -0.411799 0.246441 -0.000000 0.000000 0.000000 0.000000 0.000000 0.000000 0.000000 9.564930 -11.123301 1.330878 79.605116 -2.885407 -1.167949 0.434989 75.057795 -0.050074 -40.428473 29.599096 -11.360554 0.373173 -0.425060 0.000000 0.000000 0.000000 0.000000 0.000000 0.000000 0.000000 
21.614458 15.549489 1.291647 67.138813 -89.194382 -26.191414 1.330747 -2.460304 -10.365115 -0.163080 -3.051848 -4.733429 -5.653477 -3.236429 1.715911 13.452702 -16.488280 -17.621895 -1.472586 0.060617 -3.119726 0.000000 0.000000 0.000000 2.373295 17.075008 2.315409 -79.762784 20.088275 -3.510587 -0.233220 -86.392815 -0.028656 46.780796 -21.477929 -9.574665 -0.451688 0.296158 -0.000000 0.000000 0.000000 0.000000 0.000000 0.000000 0.000000 9.230680 -11.353994 1.234205 79.341019 -3.041789 -1.829318 0.345081 78.549287 -0.054827 -42.182644 30.750109 -12.384156 0.397458 -0.457194 0.000000 0.000000 0.000000 0.000000 0.000000 0.000000 0.000000 
21.603394 15.362525 1.293146 66.294302 -88.978649 -24.753264 1.128863 -2.498487 -10.498172 -0.182340 -3.071286 -4.736595 -5.568225 -3.255686 1.811854 13.539439 -16.714900 -17.872624 -1.408206 0.072469 -3.205043 0.000000 0.000000 0.000000 2.910944 17.387496 2.272132 -79.922848 20.013086 -4.416609 -0.208041 -89.992874 -0.036978 47.561494 -23.290681 -10.611752 -0.488376 0.350794 0.000000 0.000000 0.000000 0.000000 0.000000 0.000000 0.000000 8.852947 -11.503396 1.151320 79.080633 -3.120758 -2.541925 0.270669 81.707477 -0.060991 -43.621822 31.695269 -13.266380 0.419944 -0.490516 0.000000 0.000000 0.000000 0.000000 0.000000 0.000000 0.000000 
21.595338 15.169905 1.295226 64.517890 -88.764609 -22.478715 0.948407 -2.527233 -10.549646 -0.198468 -3.078514 -4.733307 -5.475459 -3.262473 1.862557 13.557049 -16.805720 -18.062983 -1.365000 0.081395 -3.274589 0.000000 0.000000 0.000000 3.510733 17.516328 2.254270 -80.097160 19.819111 -5.336340 179.801650 -86.825254 179.953307 48.155732 -25.003875 -11.590084 -0.520421 0.407744 0.000000 0.000000 0.000000 0.000000 0.000000 0.000000 0.000000 8.447714 -11.514945 1.084385 78.810477 -3.184385 -3.311737 0.211717 84.526315 -0.068662 -44.716967 32.436661 -13.975838 0.439638 -0.524164 0.000000 0.000000 0.000000 0.000000 0.000000 0.000000 0.000000 
21.589882 14.973274 1.297919 62.277388 -88.551060 -19.846907 0.792449 -2.543134 -10.509436 -0.212126 -3.069626 -4.722502 -5.377368 -3.252452 1.863916 13.502438 -16.796717 -18.190031 -1.338230 0.087786 -3.327426 0.000000 0.000000 0.000000 4.146394 17.450220 2.254588 -80.245947 19.510729 -6.227465 179.797613 -84.124532 179.942439 48.548123 -26.545771 -12.456193 -0.546568 0.464307 0.000000 0.000000 0.000000 0.000000 0.000000 0.000000 0.000000 8.012370 -11.435041 1.038755 78.519451 -3.203175 -4.056416 0.169560 86.934173 -0.077307 -45.480362 32.993441 -14.506046 0.455752 -0.556387 0.000000 0.000000 0.000000 0.000000 0.000000 0.000000 0.000000 
21.586470 14.774229 1.301089 59.756103 -88.330746 -17.041908 0.661808 -2.547874 -10.378482 -0.224683 -3.046900 -4.706808 -5.280806 -3.227806 1.805394 13.377981 -16.682232 -18.244617 -1.331981 0.090991 -3.360646 0.000000 0.000000 0.000000 4.784832 17.182935 2.269948 -80.324608 19.108150 -7.067501 179.783561 -81.929117 179.931186 48.766802 -27.876463 -13.183900 -0.566352 0.517309 0.000000 0.000000 0.000000 0.000000 0.000000 0.000000 0.000000 7.569197 -11.258834 1.016937 78.190881 -3.197542 -4.744289 0.142638 88.921502 -0.086466 -45.913723 33.381296 -14.851204 0.467776 -0.586011 0.000000 0.000000 0.000000 0.000000 0.000000 0.000000 0.000000 
21.584620 14.574299 1.304429 57.035975 -88.092666 -14.136266 0.555417 -2.546249 -10.165424 -0.237535 -3.016169 -4.689293 -5.193512 -3.194374 1.680682 13.193640 -16.448620 -18.220616 -1.352344 0.090223 -3.372177 0.000000 0.000000 0.000000 5.391651 16.729948 2.298020 -80.288340 18.620352 -7.832100 179.765046 -80.245347 179.920645 48.857395 -29.000940 -13.777708 -0.579962 0.563981 0.000000 0.000000 0.000000 0.000000 0.000000 0.000000 0.000000 7.154867 -10.971140 1.018065 77.803573 -3.193661 -5.355913 -179.872003 89.495632 179.904324 -46.024909 33.608840 -15.009718 0.475575 -0.612148 0.000000 0.000000 0.000000 0.000000 0.000000 0.000000 0.000000 
21.583317 14.374956 1.307684 54.379173 -87.837746 -11.382356 0.473024 -2.537921 -9.887583 -0.251239 -2.978319 -4.671856 -5.119730 -3.152998 1.496524 12.964042 -16.141308 -18.123585 -1.393364 0.086150 -3.363012 0.000000 0.000000 0.000000 5.928169 16.115995 2.329186 -80.094620 18.048115 -8.485763 179.747503 -79.084361 179.911137 48.806333 -29.847068 -14.190528 -0.587761 0.601862 0.000000 0.000000 0.000000 0.000000 0.000000 0.000000 0.000000 6.788335 -10.623485 1.042835 77.348347 -3.153079 -5.827737 -179.877641 88.345622 179.895751 -45.837740 33.687807 -14.990886 0.479142 -0.633632 0.000000 0.000000 0.000000 0.000000 0.000000 0.000000 0.000000 
